<?xml version="1.0" encoding="UTF-8" standalone="no"?>
<svg width="18px" height="15px" viewBox="0 0 18 15" version="1.1" xmlns="http://www.w3.org/2000/svg" xmlns:xlink="http://www.w3.org/1999/xlink">
    <!-- Generator: Sketch 3.8.3 (29802) - http://www.bohemiancoding.com/sketch -->
    <title>Page 1</title>
    <desc>Created with Sketch.</desc>
    <defs></defs>
    <g id="Mørk-topp,-resten-lyst-Copy" stroke="none" stroke-width="1" fill="none" fill-rule="evenodd">
        <g id="Desktop-HD" transform="translate(-578.000000, -707.000000)" fill="#F9E93A">
            <g id="Group-11-Copy" transform="translate(362.000000, 688.000000)">
                <g id="Knapp:-CTA">
                    <path d="M226.14426,33.511735 C226.581483,33.511735 227.037282,33.2838356 227.511656,32.8280369 L228.669727,31.6978276 C229.906861,30.4976054 231.107083,29.2883338 232.26968,28.0697748 L234,26.2558675 L232.26968,24.4419602 C231.107083,23.2234012 229.906861,22.0141296 228.669727,20.8139073 L227.427831,19.6139232 C227.009182,19.2047998 226.604583,19 226.214034,19 L226.074485,19 C225.776811,19 225.534861,19.0373879 225.348874,19.1116873 C225.162887,19.1859868 224.976662,19.2976742 224.790676,19.4465113 C224.595401,19.6046358 224.418702,19.7813352 224.260577,19.9768476 C224.111502,20.1628344 224.000053,20.3488212 223.925515,20.5350462 C223.851216,20.721033 223.813828,20.953457 223.813828,21.2325563 C223.813828,21.5116556 223.851216,21.7443177 223.925515,21.9303046 C224.00934,22.1255788 224.139603,22.3303786 224.316302,22.5442278 C224.493001,22.7676025 224.734951,23.0233641 225.041913,23.3117509 L225.781335,24.0233112 L218.358056,24.0233112 C217.902257,24.0233112 217.544095,24.0978488 217.283809,24.2464478 C217.023285,24.4048104 216.818723,24.5536475 216.669648,24.6931972 C216.530336,24.8417961 216.381499,25.0465959 216.223375,25.3071204 C216.074299,25.5674067 216,25.8838938 216,26.2558675 C216,26.6278411 216.074299,26.9443283 216.223375,27.2046146 C216.381499,27.465139 216.530336,27.6699389 216.669648,27.8185378 C216.818723,27.9580875 217.023285,28.1069246 217.283809,28.2652872 C217.544095,28.4138862 217.902257,28.4884238 218.358056,28.4884238 L225.669648,28.4884238 L224.469664,29.8139073 C224.03244,30.2978065 223.813828,30.7581298 223.813828,31.1953536 C223.813828,31.62329 223.925515,32.0047892 224.14889,32.3396132 C224.381314,32.6651496 224.660413,32.9442489 224.98595,33.1766729 C225.321012,33.4000476 225.707036,33.511735 226.14426,33.511735 Z" id="Page-1"></path>
                </g>
            </g>
        </g>
    </g>
</svg>