<?xml version="1.0" encoding="UTF-8" standalone="no"?>
<svg width="50px" height="50px" viewBox="0 0 50 50" version="1.1" xmlns="http://www.w3.org/2000/svg" xmlns:xlink="http://www.w3.org/1999/xlink">
    <!-- Generator: Sketch 3.8.3 (29802) - http://www.bohemiancoding.com/sketch -->
    <title>Page 1</title>
    <desc>Created with Sketch.</desc>
    <defs></defs>
    <g id="Mørk-topp,-resten-lyst-Copy" stroke="none" stroke-width="1" fill="none" fill-rule="evenodd">
        <g id="Desktop-HD" transform="translate(-202.000000, -170.000000)" fill="#F9E93A">
            <g id="Page-1" transform="translate(202.000000, 170.000000)">
                <path d="M25,0.00266666667 C11.216,0.00266666667 0,11.216 0,25 C0,38.784 11.216,49.9973333 25,49.9973333 C38.7866667,49.9973333 50,38.784 50,25 C50,11.216 38.7866667,0.00266666667 25,0.00266666667 L25,0.00266666667 Z M25,47.1146667 C12.8046667,47.1146667 2.88533333,37.1953333 2.88533333,25 C2.88533333,12.8073333 12.8046667,2.88533333 25,2.88533333 C37.1953333,2.88533333 47.1146667,12.8073333 47.1146667,25 C47.1146667,37.1953333 37.1953333,47.1146667 25,47.1146667 L25,47.1146667 Z" id="Fill-1"></path>
                <path d="M29.724,18.2366667 L25,22.9606667 L20.276,18.2366667 C19.7133333,17.6746667 18.7993333,17.6746667 18.2366667,18.2366667 C17.6746667,18.7993333 17.6746667,19.7133333 18.2366667,20.276 L22.9606667,25 L18.2366667,29.724 C17.6746667,30.2866667 17.6746667,31.2006667 18.2366667,31.7633333 C18.802,32.328 19.7133333,32.3253333 20.276,31.7633333 L25,27.0393333 L29.724,31.7633333 C30.2866667,32.3253333 31.2006667,32.3253333 31.7633333,31.7633333 C32.328,31.198 32.3253333,30.2866667 31.7633333,29.724 L27.0393333,25 L31.7633333,20.276 C32.3253333,19.7133333 32.328,18.7993333 31.7633333,18.2366667 C31.2006667,17.6746667 30.2866667,17.6746667 29.724,18.2366667 L29.724,18.2366667 Z" id="Fill-2"></path>
            </g>
        </g>
    </g>
</svg>