<?xml version="1.0" encoding="UTF-8" standalone="no"?>
<svg width="45px" height="67px" viewBox="0 0 45 67" version="1.1" xmlns="http://www.w3.org/2000/svg" xmlns:xlink="http://www.w3.org/1999/xlink">
    <!-- Generator: Sketch 39.1 (31720) - http://www.bohemiancoding.com/sketch -->
    <title>icon-mapmarker-yellow</title>
    <desc>Created with Sketch.</desc>
    <defs></defs>
    <g id="Alt-mørkt" stroke="none" stroke-width="1" fill="none" fill-rule="evenodd">
        <g id="Okse-ord" transform="translate(-563.000000, -1855.000000)" fill="#F9E93A">
            <g id="icon-mapmarker-yellow" transform="translate(563.000000, 1855.000000)">
                <path d="M22.496,0.898 C10.203,0.898 0.199,10.902 0.199,23.199 C0.199,27.012 1.18,30.773 3.078,34.16 L22.496,66.102 L41.949,34.09 C43.809,30.773 44.793,27.004 44.793,23.199 C44.797,10.902 34.797,0.898 22.496,0.898 L22.496,0.898 Z M37.773,31.648 L22.496,56.777 L7.262,31.715 C5.812,29.129 5.043,26.184 5.043,23.195 C5.043,13.57 12.871,5.738 22.496,5.738 C32.121,5.738 39.953,13.566 39.953,23.195 C39.957,26.176 39.188,29.125 37.773,31.648 L37.773,31.648 Z" id="Fill-1"></path>
                <path d="M22.496,12.277 C16.473,12.277 11.574,17.176 11.574,23.199 C11.574,29.223 16.473,34.121 22.496,34.121 C28.52,34.121 33.414,29.223 33.414,23.199 C33.414,17.176 28.523,12.277 22.496,12.277 L22.496,12.277 Z M22.496,29.277 C19.145,29.277 16.418,26.551 16.418,23.199 C16.418,19.848 19.145,17.121 22.496,17.121 C25.844,17.121 28.57,19.848 28.57,23.199 C28.574,26.551 25.848,29.277 22.496,29.277 L22.496,29.277 Z" id="Fill-2"></path>
            </g>
        </g>
    </g>
</svg>