<?xml version="1.0" encoding="UTF-8" standalone="no"?>
<svg width="18px" height="15px" viewBox="0 0 18 15" version="1.1" xmlns="http://www.w3.org/2000/svg" xmlns:xlink="http://www.w3.org/1999/xlink">
    <!-- Generator: Sketch 39.1 (31720) - http://www.bohemiancoding.com/sketch -->
    <title>Page 1</title>
    <desc>Created with Sketch.</desc>
    <defs></defs>
    <g id="Alt-mørkt" stroke="none" stroke-width="1" fill="none" fill-rule="evenodd">
        <g id="Desktop-HD" transform="translate(-267.000000, -590.000000)" fill="#414B5A">
            <g id="Group-12" transform="translate(123.000000, 234.000000)">
                <g id="Group-11-Copy" transform="translate(0.000000, 340.000000)">
                    <g id="Knapp:-CTA">
                        <path d="M154.14426,30.511735 C154.581483,30.511735 155.037282,30.2838356 155.511656,29.8280369 L156.669727,28.6978276 C157.906861,27.4976054 159.107083,26.2883338 160.26968,25.0697748 L162,23.2558675 L160.26968,21.4419602 C159.107083,20.2234012 157.906861,19.0141296 156.669727,17.8139073 L155.427831,16.6139232 C155.009182,16.2047998 154.604583,16 154.214034,16 L154.074485,16 C153.776811,16 153.534861,16.0373879 153.348874,16.1116873 C153.162887,16.1859868 152.976662,16.2976742 152.790676,16.4465113 C152.595401,16.6046358 152.418702,16.7813352 152.260577,16.9768476 C152.111502,17.1628344 152.000053,17.3488212 151.925515,17.5350462 C151.851216,17.721033 151.813828,17.953457 151.813828,18.2325563 C151.813828,18.5116556 151.851216,18.7443177 151.925515,18.9303046 C152.00934,19.1255788 152.139603,19.3303786 152.316302,19.5442278 C152.493001,19.7676025 152.734951,20.0233641 153.041913,20.3117509 L153.781335,21.0233112 L146.358056,21.0233112 C145.902257,21.0233112 145.544095,21.0978488 145.283809,21.2464478 C145.023285,21.4048104 144.818723,21.5536475 144.669648,21.6931972 C144.530336,21.8417961 144.381499,22.0465959 144.223375,22.3071204 C144.074299,22.5674067 144,22.8838938 144,23.2558675 C144,23.6278411 144.074299,23.9443283 144.223375,24.2046146 C144.381499,24.465139 144.530336,24.6699389 144.669648,24.8185378 C144.818723,24.9580875 145.023285,25.1069246 145.283809,25.2652872 C145.544095,25.4138862 145.902257,25.4884238 146.358056,25.4884238 L153.669648,25.4884238 L152.469664,26.8139073 C152.03244,27.2978065 151.813828,27.7581298 151.813828,28.1953536 C151.813828,28.62329 151.925515,29.0047892 152.14889,29.3396132 C152.381314,29.6651496 152.660413,29.9442489 152.98595,30.1766729 C153.321012,30.4000476 153.707036,30.511735 154.14426,30.511735 Z" id="Page-1"></path>
                    </g>
                </g>
            </g>
        </g>
    </g>
</svg>