<?xml version="1.0" encoding="UTF-8" standalone="no"?>
<svg width="26px" height="21px" viewBox="0 0 26 21" version="1.1" xmlns="http://www.w3.org/2000/svg" xmlns:xlink="http://www.w3.org/1999/xlink">
    <!-- Generator: Sketch 40.1 (33804) - http://www.bohemiancoding.com/sketch -->
    <title>icon-arrow-large-black</title>
    <desc>Created with Sketch.</desc>
    <defs></defs>
    <g id="Page-1" stroke="none" stroke-width="1" fill="none" fill-rule="evenodd">
        <g id="Desktop-HD" transform="translate(-321.000000, -146.000000)" fill="#000000">
            <path d="M335.371034,166.558291 C335.990435,166.558291 336.63615,166.235434 337.308179,165.589719 L338.94878,163.988589 C340.701387,162.288274 342.401701,160.57514 344.048713,158.848848 L346.5,156.279146 L344.048713,153.709444 C342.401701,151.983152 340.701387,150.270017 338.94878,148.569702 L337.189427,146.869725 C336.596341,146.290133 336.023159,146 335.469882,146 L335.272187,146 C334.850482,146 334.50772,146.052966 334.244238,146.158224 C333.980757,146.263481 333.716938,146.421705 333.453457,146.632558 C333.176818,146.856567 332.926494,147.106891 332.702485,147.383867 C332.491295,147.647349 332.333408,147.91083 332.227813,148.174649 C332.122556,148.43813 332.06959,148.767397 332.06959,149.162788 C332.06959,149.558179 332.122556,149.887783 332.227813,150.151265 C332.346566,150.427903 332.531104,150.718036 332.781428,151.020989 C333.031752,151.337437 333.374514,151.699766 333.809376,152.108314 L334.856891,153.116358 L324.340579,153.116358 C323.694864,153.116358 323.187469,153.221952 322.81873,153.432468 C322.449653,153.656815 322.159858,153.867667 321.948668,154.065363 C321.75131,154.275878 321.540457,154.566011 321.316447,154.935087 C321.105258,155.303826 321,155.752183 321,156.279146 C321,156.806108 321.105258,157.254465 321.316447,157.623204 C321.540457,157.99228 321.75131,158.282413 321.948668,158.492929 C322.159858,158.690624 322.449653,158.901476 322.81873,159.125824 C323.187469,159.336339 323.694864,159.441934 324.340579,159.441934 L334.698668,159.441934 L332.99869,161.319702 C332.37929,162.005226 332.06959,162.657351 332.06959,163.276751 C332.06959,163.882994 332.227813,164.423451 332.544261,164.897785 C332.873528,165.358962 333.268919,165.754353 333.730096,166.08362 C334.204767,166.400067 334.751634,166.558291 335.371034,166.558291 Z" id="icon-arrow-large-black"></path>
        </g>
    </g>
</svg>