<?xml version="1.0" encoding="UTF-8" standalone="no"?>
<svg width="31px" height="25px" viewBox="0 0 31 25" version="1.1" xmlns="http://www.w3.org/2000/svg" xmlns:xlink="http://www.w3.org/1999/xlink">
    <!-- Generator: Sketch 3.8.3 (29802) - http://www.bohemiancoding.com/sketch -->
    <title>Page 1</title>
    <desc>Created with Sketch.</desc>
    <defs></defs>
    <g id="Mørk-topp,-resten-lyst-Copy" stroke="none" stroke-width="1" fill="none" fill-rule="evenodd">
        <g id="Desktop-HD" transform="translate(-578.000000, -707.000000)" fill="#F9E93A">
            <g id="Group-11-Copy" transform="translate(362.000000, 688.000000)">
                <g id="Knapp:-CTA">
                    <path d="M233.470669,43.9924325 C234.223666,43.9924325 235.008652,43.5999391 235.825629,42.8149525 L237.820086,40.8684809 C239.950705,38.8014315 242.017755,36.7187971 244.020004,34.6201678 L247,31.4962162 L244.020004,28.3722647 C242.017755,26.2736353 239.950705,24.191001 237.820086,22.1239515 L235.681264,20.0573122 C234.960257,19.3527108 234.263448,19 233.590837,19 L233.350501,19 C232.83784,19 232.421149,19.0643902 232.100839,19.1923504 C231.780528,19.3203106 231.459807,19.5126611 231.139497,19.7689916 C230.803191,20.0413172 230.498875,20.3456328 230.22655,20.6823486 C229.969809,21.0026592 229.777869,21.3229699 229.649499,21.6436906 C229.521538,21.9640013 229.457148,22.364287 229.457148,22.8449581 C229.457148,23.3256291 229.521538,23.726325 229.649499,24.0466356 C229.793864,24.3829413 230.018204,24.7356521 230.32252,25.1039478 C230.626836,25.4886487 231.043527,25.9291271 231.572183,26.4257931 L232.845633,27.6512582 L220.061096,27.6512582 C219.276109,27.6512582 218.659276,27.7796285 218.211005,28.0355489 C217.762324,28.3082846 217.410023,28.5646151 217.153282,28.8049507 C216.913357,29.0608711 216.657026,29.4135819 216.384701,29.8622629 C216.12796,30.3105337 216,30.855595 216,31.4962162 C216,32.1368375 216.12796,32.6818988 216.384701,33.1301696 C216.657026,33.5788506 216.913357,33.9315614 217.153282,34.1874818 C217.410023,34.4278173 217.762324,34.6841479 218.211005,34.9568835 C218.659276,35.212804 219.276109,35.3411743 220.061096,35.3411743 L232.653282,35.3411743 L230.586643,37.6239515 C229.833646,38.4573334 229.457148,39.2501125 229.457148,40.003109 C229.457148,40.7401106 229.649499,41.397137 230.034199,41.9737782 C230.434485,42.5344244 230.915156,43.0150954 231.475802,43.4153812 C232.052854,43.800082 232.717673,43.9924325 233.470669,43.9924325 Z" id="Page-1"></path>
                </g>
            </g>
        </g>
    </g>
</svg>