<?xml version="1.0" encoding="UTF-8" standalone="no"?>
<svg width="18px" height="15px" viewBox="0 0 18 15" version="1.1" xmlns="http://www.w3.org/2000/svg" xmlns:xlink="http://www.w3.org/1999/xlink">
    <!-- Generator: Sketch 40.1 (33804) - http://www.bohemiancoding.com/sketch -->
    <title>icon-arrow-small-black</title>
    <desc>Created with Sketch.</desc>
    <defs></defs>
    <g id="Page-1" stroke="none" stroke-width="1" fill="none" fill-rule="evenodd">
        <g id="Desktop-HD" transform="translate(-415.000000, -146.000000)" fill="#000000">
            <path d="M425.14426,160.511735 C425.581483,160.511735 426.037282,160.283836 426.511656,159.828037 L427.669727,158.697828 C428.906861,157.497605 430.107083,156.288334 431.26968,155.069775 L433,153.255867 L431.26968,151.44196 C430.107083,150.223401 428.906861,149.01413 427.669727,147.813907 L426.427831,146.613923 C426.009182,146.2048 425.604583,146 425.214034,146 L425.074485,146 C424.776811,146 424.534861,146.037388 424.348874,146.111687 C424.162887,146.185987 423.976662,146.297674 423.790676,146.446511 C423.595401,146.604636 423.418702,146.781335 423.260577,146.976848 C423.111502,147.162834 423.000053,147.348821 422.925515,147.535046 C422.851216,147.721033 422.813828,147.953457 422.813828,148.232556 C422.813828,148.511656 422.851216,148.744318 422.925515,148.930305 C423.00934,149.125579 423.139603,149.330379 423.316302,149.544228 C423.493001,149.767602 423.734951,150.023364 424.041913,150.311751 L424.781335,151.023311 L417.358056,151.023311 C416.902257,151.023311 416.544095,151.097849 416.283809,151.246448 C416.023285,151.40481 415.818723,151.553648 415.669648,151.693197 C415.530336,151.841796 415.381499,152.046596 415.223375,152.30712 C415.074299,152.567407 415,152.883894 415,153.255867 C415,153.627841 415.074299,153.944328 415.223375,154.204615 C415.381499,154.465139 415.530336,154.669939 415.669648,154.818538 C415.818723,154.958087 416.023285,155.106925 416.283809,155.265287 C416.544095,155.413886 416.902257,155.488424 417.358056,155.488424 L424.669648,155.488424 L423.469664,156.813907 C423.03244,157.297806 422.813828,157.75813 422.813828,158.195354 C422.813828,158.62329 422.925515,159.004789 423.14889,159.339613 C423.381314,159.66515 423.660413,159.944249 423.98595,160.176673 C424.321012,160.400048 424.707036,160.511735 425.14426,160.511735 Z" id="icon-arrow-small-black"></path>
        </g>
    </g>
</svg>