<?xml version="1.0" encoding="UTF-8" standalone="no"?>
<svg width="18px" height="15px" viewBox="0 0 18 15" version="1.1" xmlns="http://www.w3.org/2000/svg" xmlns:xlink="http://www.w3.org/1999/xlink">
    <!-- Generator: Sketch 40.1 (33804) - http://www.bohemiancoding.com/sketch -->
    <title>icon-arrow-small-blue</title>
    <desc>Created with Sketch.</desc>
    <defs></defs>
    <g id="Page-1" stroke="none" stroke-width="1" fill="none" fill-rule="evenodd">
        <g id="Desktop-HD" transform="translate(-415.000000, -75.000000)" fill="#283746">
            <path d="M425.14426,89.511735 C425.581483,89.511735 426.037282,89.2838356 426.511656,88.8280369 L427.669727,87.6978276 C428.906861,86.4976054 430.107083,85.2883338 431.26968,84.0697748 L433,82.2558675 L431.26968,80.4419602 C430.107083,79.2234012 428.906861,78.0141296 427.669727,76.8139073 L426.427831,75.6139232 C426.009182,75.2047998 425.604583,75 425.214034,75 L425.074485,75 C424.776811,75 424.534861,75.0373879 424.348874,75.1116873 C424.162887,75.1859868 423.976662,75.2976742 423.790676,75.4465113 C423.595401,75.6046358 423.418702,75.7813352 423.260577,75.9768476 C423.111502,76.1628344 423.000053,76.3488212 422.925515,76.5350462 C422.851216,76.721033 422.813828,76.953457 422.813828,77.2325563 C422.813828,77.5116556 422.851216,77.7443177 422.925515,77.9303046 C423.00934,78.1255788 423.139603,78.3303786 423.316302,78.5442278 C423.493001,78.7676025 423.734951,79.0233641 424.041913,79.3117509 L424.781335,80.0233112 L417.358056,80.0233112 C416.902257,80.0233112 416.544095,80.0978488 416.283809,80.2464478 C416.023285,80.4048104 415.818723,80.5536475 415.669648,80.6931972 C415.530336,80.8417961 415.381499,81.0465959 415.223375,81.3071204 C415.074299,81.5674067 415,81.8838938 415,82.2558675 C415,82.6278411 415.074299,82.9443283 415.223375,83.2046146 C415.381499,83.465139 415.530336,83.6699389 415.669648,83.8185378 C415.818723,83.9580875 416.023285,84.1069246 416.283809,84.2652872 C416.544095,84.4138862 416.902257,84.4884238 417.358056,84.4884238 L424.669648,84.4884238 L423.469664,85.8139073 C423.03244,86.2978065 422.813828,86.7581298 422.813828,87.1953536 C422.813828,87.62329 422.925515,88.0047892 423.14889,88.3396132 C423.381314,88.6651496 423.660413,88.9442489 423.98595,89.1766729 C424.321012,89.4000476 424.707036,89.511735 425.14426,89.511735 Z" id="icon-arrow-small-blue"></path>
        </g>
    </g>
</svg>