<?xml version="1.0" encoding="UTF-8" standalone="no"?>
<svg width="26px" height="21px" viewBox="0 0 26 21" version="1.1" xmlns="http://www.w3.org/2000/svg" xmlns:xlink="http://www.w3.org/1999/xlink">
    <!-- Generator: Sketch 40.1 (33804) - http://www.bohemiancoding.com/sketch -->
    <title>icon-arrow-large-blue</title>
    <desc>Created with Sketch.</desc>
    <defs></defs>
    <g id="Page-1" stroke="none" stroke-width="1" fill="none" fill-rule="evenodd">
        <g id="Desktop-HD" transform="translate(-321.000000, -75.000000)" fill="#283746">
            <path d="M335.371034,95.5582912 C335.990435,95.5582912 336.63615,95.2354338 337.308179,94.589719 L338.94878,92.9885892 C340.701387,91.2882743 342.401701,89.5751396 344.048713,87.8488477 L346.5,85.2791456 L344.048713,82.7094435 C342.401701,80.9831516 340.701387,79.2700169 338.94878,77.5697021 L337.189427,75.8697246 C336.596341,75.2901331 336.023159,75 335.469882,75 L335.272187,75 C334.850482,75 334.50772,75.0529662 334.244238,75.1582237 C333.980757,75.2634813 333.716938,75.4217051 333.453457,75.6325576 C333.176818,75.8565674 332.926494,76.1068915 332.702485,76.3838674 C332.491295,76.6473487 332.333408,76.91083 332.227813,77.1746487 C332.122556,77.4381301 332.06959,77.7673974 332.06959,78.1627881 C332.06959,78.5581788 332.122556,78.8877835 332.227813,79.1512648 C332.346566,79.4279033 332.531104,79.7180364 332.781428,80.0209893 C333.031752,80.3374368 333.374514,80.6997658 333.809376,81.1083137 L334.856891,82.1163575 L324.340579,82.1163575 C323.694864,82.1163575 323.187469,82.2219525 322.81873,82.4324677 C322.449653,82.6568148 322.159858,82.8676673 321.948668,83.0653626 C321.75131,83.2758778 321.540457,83.5660109 321.316447,83.9350872 C321.105258,84.3038261 321,84.7521829 321,85.2791456 C321,85.8061083 321.105258,86.2544651 321.316447,86.623204 C321.540457,86.9922803 321.75131,87.2824134 321.948668,87.4929286 C322.159858,87.6906239 322.449653,87.9014765 322.81873,88.1258236 C323.187469,88.3363387 323.694864,88.4419337 324.340579,88.4419337 L334.698668,88.4419337 L332.99869,90.3197021 C332.37929,91.0052258 332.06959,91.6573506 332.06959,92.276751 C332.06959,92.8829942 332.227813,93.4234514 332.544261,93.8977853 C332.873528,94.358962 333.268919,94.7543527 333.730096,95.08362 C334.204767,95.4000675 334.751634,95.5582912 335.371034,95.5582912 Z" id="icon-arrow-large-blue"></path>
        </g>
    </g>
</svg>