<?xml version="1.0" encoding="UTF-8" standalone="no"?>
<svg width="145px" height="50px" viewBox="0 0 145 50" version="1.1" xmlns="http://www.w3.org/2000/svg" xmlns:xlink="http://www.w3.org/1999/xlink">
    <!-- Generator: Sketch 3.8.3 (29802) - http://www.bohemiancoding.com/sketch -->
    <title>Logo - yellow</title>
    <desc>Created with Sketch.</desc>
    <defs>
        <polygon id="path-1" points="144.471528 33.937659 144.471528 16.1740878 133.304147 16.1740878 133.304147 33.937659 144.471528 33.937659"></polygon>
    </defs>
    <g id="Mørk-topp,-resten-lyst-Copy" stroke="none" stroke-width="1" fill="none" fill-rule="evenodd">
        <g id="Desktop-HD" transform="translate(-209.000000, -56.000000)">
            <g id="Logo---yellow" transform="translate(209.000000, 56.000000)">
                <g id="logo-element" fill="#F9E93A">
                    <path d="M36.1435283,41.1305368 L31.3528118,36.9246198 C34.4617071,35.7115004 36.6486135,33.2560781 36.6486135,31.8457198 C36.6486135,31.8457198 34.5170656,33.8467883 30.4660957,33.8467883 C29.1634559,33.8467883 27.4527307,33.5001108 27.4527307,33.5001108 L26.3254744,33.9594962 C24.4075222,34.7398978 20.7670872,35.9791816 19.1714881,35.9791816 C18.6957967,35.9374193 17.556293,34.9869495 16.5750266,33.8689273 C17.952131,30.2567395 20.575047,24.0532762 22.7560747,20.5688911 C24.6554108,20.9095307 26.8183122,21.1223675 29.2575164,21.1545697 C30.0335154,23.8570437 31.5090894,26.0015129 32.2654925,26.7778892 C34.037945,25.7449011 36.1459778,22.6202757 36.6726186,20.4798318 L34.1574802,19.642573 C33.9659299,20.3817155 33.1997288,21.9314492 32.6667193,22.4788876 C32.1993563,21.9988727 31.6825134,19.5449599 31.6825134,16.9924277 C31.6825134,16.9924277 28.318871,17.4935754 24.8930115,17.4935754 C15.869083,17.4935754 10.6830185,13.7958504 10.6830185,13.7958504 C10.6830185,14.5571319 12.9042178,17.6042707 18.6585645,19.5328841 C15.5143965,25.041483 12.4270568,33.4341968 12.3908043,33.5343257 L12.0052543,34.5954908 L12.6685767,35.500173 C13.4622121,36.5819677 16.2756986,40.1121403 19.16218,40.1121403 C21.346637,40.1121403 24.8396126,38.9261915 26.6639942,38.2454156 L32.5702094,43.4309857 C29.9497428,44.7392024 27.0098625,45.475326 23.9058662,45.475326 C12.9429198,45.475326 4.02431941,36.3152927 4.02431941,25.0555715 C4.02431941,13.7963535 12.9429198,4.63632026 23.9058662,4.63632026 C29.3285516,4.63632026 34.2486013,6.87991204 37.8390667,10.508201 C34.7458482,9.7750964 31.8701445,9.11344061 30.1814647,9.11344061 C27.2117006,9.11344061 25.3358797,10.7024208 22.9172513,13.6368517 C19.7970883,13.5689251 16.336446,12.5334212 16.336446,12.5334212 C16.336446,13.1578431 19.6775531,15.427096 24.8930115,15.427096 C25.5293895,15.427096 26.1642979,15.4089823 26.7752012,15.3792958 C28.1581844,13.8169831 29.0409813,13.2469025 30.1814647,13.2469025 C32.6128305,13.2469025 40.3169728,15.3380367 41.5079158,15.5790505 C42.9604645,18.4133524 43.7869231,21.6365973 43.7869231,25.0555715 C43.7869231,31.5770322 40.7916843,37.38954 36.1435283,41.1305368 M23.9058662,0.503361564 C10.7241699,0.503361564 -0.00019595936,11.5175405 -0.00019595936,25.0555715 C-0.00019595936,38.5941057 10.7241699,49.6082847 23.9058662,49.6082847 C37.0870726,49.6082847 47.8109486,38.5941057 47.8109486,25.0555715 C47.8109486,11.5175405 37.0870726,0.503361564 23.9058662,0.503361564" id="Fill-1"></path>
                    <path d="M24.5624281,21.9396004 C24.5516503,21.932053 24.5398927,21.9255119 24.5286251,21.9184677 L22.6214506,24.7985573 C22.6322284,24.807111 22.6420263,24.8156647 22.6528041,24.8232121 C23.4283133,25.3651158 24.4840443,25.1583169 25.011175,24.3618141 C25.5387956,23.5658145 25.3374473,22.4815041 24.5624281,21.9396004" id="Fill-4"></path>
                </g>
                <path d="M70.6257131,30.1310501 C73.3431796,30.1310501 75.5673183,27.8472055 75.5673183,25.0813333 C75.5673183,22.2898 73.3431796,19.9807974 70.6257131,19.9807974 C67.9322517,19.9807974 65.7090928,22.2898 65.7090928,25.0813333 C65.7090928,27.8472055 67.9322517,30.1310501 70.6257131,30.1310501 M70.6257131,15.9202938 C75.5673183,15.9202938 79.5203085,20.0064586 79.5203085,25.0813333 C79.5203085,30.1567113 75.5673183,34.1910506 70.6257131,34.1910506 C65.684108,34.1910506 61.7561026,30.1567113 61.7561026,25.0813333 C61.7561026,20.0064586 65.684108,15.9202938 70.6257131,15.9202938" id="Fill-6" fill="#F9E93A"></path>
                <path d="M89.1191818,16.7833143 C89.1191818,16.4537443 89.3660906,16.1744904 89.7119589,16.1744904 L92.6028493,16.1744904 C92.9237328,16.1744904 93.1961163,16.4537443 93.1961163,16.7833143 L93.1961163,23.4572325 L98.6805289,16.4280831 C98.7794884,16.3007836 99.0019023,16.1744904 99.1498516,16.1744904 L102.263156,16.1744904 C102.732479,16.1744904 102.979877,16.7324951 102.707494,17.1128843 L96.9266926,24.5485872 L103.226786,32.9730001 C103.49819,33.3533893 103.226786,33.9124004 102.757463,33.9124004 L99.3477705,33.9124004 C99.1748364,33.9124004 98.9524225,33.810762 98.9029428,33.7342816 L93.1961163,25.7662351 L93.1961163,33.3282313 C93.1961163,33.6583044 92.9237328,33.9375584 92.6028493,33.9375584 L89.7119589,33.9375584 C89.3660906,33.9375584 89.1191818,33.6583044 89.1191818,33.3282313 L89.1191818,16.7833143 Z" id="Fill-8" fill="#F9E93A"></path>
                <path d="M112.165668,31.5265149 L113.327707,29.4202859 C113.525136,29.0902127 113.994459,29.1415351 114.166903,29.2683315 C114.265863,29.3191506 116.044684,30.6640981 117.676045,30.6640981 C118.664171,30.6640981 119.379912,30.029613 119.379912,29.1415351 C119.379912,28.0753384 118.515731,27.2632377 116.83538,26.5784365 C114.71118,25.7155166 112.042704,24.0153379 112.042704,20.9702118 C112.042704,18.4579324 113.944489,15.920495 117.75002,15.920495 C120.319537,15.920495 122.295787,17.2654425 123.037004,17.8234473 C123.333392,18.001566 123.284402,18.4579324 123.185443,18.635548 L121.925424,20.5898226 C121.752,20.8685734 121.307662,21.0970082 121.085248,20.9198958 C120.862345,20.7925962 119.059519,19.3973327 117.552101,19.3973327 C116.662936,19.3973327 115.995694,20.0061567 115.995694,20.6909578 C115.995694,21.6303581 116.73691,22.3408205 118.688176,23.1529212 C120.615926,23.9393607 123.67975,25.487585 123.67975,28.9387615 C123.67975,31.5521761 121.480596,34.1912518 117.84849,34.1912518 C114.636226,34.1912518 112.857405,32.8206432 112.289613,32.2369772 C112.042704,31.9838876 111.968239,31.8822492 112.165668,31.5265149" id="Fill-10" fill="#F9E93A"></path>
                <mask id="mask-2" fill="white">
                    <use xlink:href="#path-1"></use>
                </mask>
                <g id="Clip-13"></g>
                <path d="M133.304147,16.6566186 C133.304147,16.4025226 133.501576,16.1740878 133.77347,16.1740878 L144.002549,16.1740878 C144.273952,16.1740878 144.471871,16.4025226 144.471871,16.6566186 L144.471871,19.4224907 C144.471871,19.6760835 144.273952,19.9045183 144.002549,19.9045183 L137.158668,19.9045183 L137.158668,23.0512828 L142.79152,23.0512828 C143.038429,23.0512828 143.260843,23.2797176 143.260843,23.5333104 L143.260843,26.2996857 C143.260843,26.5784365 143.038429,26.7812101 142.79152,26.7812101 L137.158668,26.7812101 L137.158668,30.2067254 L144.002549,30.2067254 C144.273952,30.2067254 144.471871,30.4356634 144.471871,30.6892561 L144.471871,33.4551283 C144.471871,33.7092243 144.273952,33.937659 144.002549,33.937659 L133.77347,33.937659 C133.501576,33.937659 133.304147,33.7092243 133.304147,33.4551283 L133.304147,16.6566186 Z" id="Fill-12" fill="#F9E93A" mask="url(#mask-2)"></path>
            </g>
        </g>
    </g>
</svg>