<?xml version="1.0" encoding="UTF-8" standalone="no"?>
<svg width="90px" height="89px" viewBox="0 0 90 89" version="1.1" xmlns="http://www.w3.org/2000/svg" xmlns:xlink="http://www.w3.org/1999/xlink">
    <!-- Generator: Sketch 3.8.3 (29802) - http://www.bohemiancoding.com/sketch -->
    <title>Page 1</title>
    <desc>Created with Sketch.</desc>
    <defs>
        <polygon id="path-1" points="12.5501111 19.2228307 12.5501111 0.577655474 0.478567842 0.577655474 0.478567842 19.2228307"></polygon>
    </defs>
    <g id="Mørk-topp,-resten-lyst-Copy" stroke="none" stroke-width="1" fill="none" fill-rule="evenodd">
        <g id="Page-1">
            <path d="M58.407163,44.2433292 L53.0345925,39.6627526 C56.5214221,38.3420445 58.9738624,35.6681467 58.9738624,34.1324095 C58.9738624,34.1324095 56.5826516,36.3112854 52.0399374,36.3112854 C50.5788953,36.3112854 48.6605854,35.9338474 48.6605854,35.9338474 L47.3962595,36.4340664 C45.2460589,37.2844387 41.1632179,38.633081 39.3732296,38.6337307 C38.8397505,38.5876066 37.5623971,37.552738 36.4615673,36.3359715 C38.0059859,32.4017818 40.9476116,25.646227 43.3935382,21.8517088 C45.5235461,22.2226504 47.94928,22.4545701 50.6844186,22.4896504 C51.5546604,25.4324971 53.2098134,27.767935 54.0579083,28.6137599 C56.0459157,27.488592 58.4097686,24.0858036 59.0005689,21.7549131 L56.1800997,20.8434752 C55.9651448,21.6477234 55.105325,23.3354752 54.5080109,23.9318401 C53.9836511,23.4095336 53.4039242,20.736935 53.4039242,17.9564971 C53.4039242,17.9564971 49.6317908,18.5028401 45.78996,18.5028401 C35.6701424,18.5028401 29.8533317,14.4757526 29.8533317,14.4757526 C29.8533317,15.3053365 32.3448547,18.6230226 38.7980623,20.7239423 C35.2721501,26.7226723 31.8094215,35.861738 31.7690361,35.9715263 L31.3365207,37.1265774 L32.080395,38.1120737 C32.9708295,39.289862 36.1261074,43.1344022 39.3634589,43.1344022 C41.8126424,43.1344022 45.7300331,41.8429277 47.7760133,41.1010445 L54.399882,46.7483219 C51.4608619,48.1736212 48.1642349,48.9746212 44.6826164,48.9746212 C32.3884971,48.9746212 22.3859276,38.9994752 22.3859276,26.7376139 C22.3859276,14.4764022 32.3884971,4.5012562 44.6826164,4.5012562 C50.7638868,4.5012562 56.2823661,6.94453358 60.3091885,10.8956139 C56.8399462,10.0972124 53.6143195,9.37676715 51.7207619,9.37676715 C48.3902633,9.37676715 46.2863104,11.1073949 43.5746214,14.3029496 C40.0754157,14.2288912 36.1938507,13.1011248 36.1938507,13.1011248 C36.1938507,13.7812927 39.9412317,16.2525044 45.78996,16.2525044 C46.5032195,16.2525044 47.2158277,16.2323657 47.9010779,16.2005336 C49.451359,14.4991394 50.4421058,13.8780883 51.7207619,13.8780883 C54.4474327,13.8780883 63.0879695,16.1550591 64.4232956,16.4181613 C66.0523934,19.5045774 66.9793051,23.0145555 66.9793051,26.7376139 C66.9793051,33.8394241 63.6194944,40.1694679 58.407163,44.2433292 M44.6826164,0.000584671533 C29.8995795,0.000584671533 17.8731768,11.9947964 17.8731768,26.7376139 C17.8731768,41.481081 29.8995795,53.4752927 44.6826164,53.4752927 C59.4656532,53.4752927 71.4920559,41.481081 71.4920559,26.7376139 C71.4920559,11.9947964 59.4656532,0.000584671533 44.6826164,0.000584671533" id="Fill-1" fill="#283746"></path>
            <path d="M45.4192604,23.3444401 C45.4068842,23.3359949 45.3938567,23.3294985 45.3814805,23.3217029 L43.2423532,26.4581409 C43.2547294,26.4672358 43.2651515,26.4763307 43.2775277,26.4847759 C44.1471181,27.0746445 45.3313243,26.8498708 45.9227761,25.982608 C46.5142278,25.1153453 46.2888508,23.9343088 45.4192604,23.3444401" id="Fill-3" fill="#283746"></path>
            <path d="M9.58783672,84.1457321 C12.5255541,84.1457321 14.9291411,81.7485788 14.9291411,78.8453599 C14.9291411,75.9148562 12.5255541,73.4910679 9.58783672,73.4910679 C6.67682585,73.4910679 4.27323889,75.9148562 4.27323889,78.8453599 C4.27323889,81.7485788 6.67682585,84.1457321 9.58783672,84.1457321 M9.58783672,69.229462 C14.9291411,69.229462 19.2028359,73.5183526 19.2028359,78.8453599 C19.2028359,84.1723672 14.9291411,88.407338 9.58783672,88.407338 C4.24653237,88.407338 0.000195413573,84.1723672 0.000195413573,78.8453599 C0.000195413573,73.5183526 4.24653237,69.229462 9.58783672,69.229462" id="Fill-5" fill="#283746"></path>
            <path d="M29.5786453,70.1351832 C29.5786453,69.7889277 29.8450591,69.4959423 30.2196018,69.4959423 L33.3449163,69.4959423 C33.6914497,69.4959423 33.9858728,69.7889277 33.9858728,70.1351832 L33.9858728,77.1408474 L39.9140692,69.7622927 C40.0208953,69.6291175 40.2619054,69.4959423 40.4214931,69.4959423 L43.7871663,69.4959423 C44.2945902,69.4959423 44.5616554,70.0819131 44.2672323,70.4814387 L38.0185576,78.2855044 L44.8287206,87.1289861 C45.121841,87.5285117 44.8287206,88.1144825 44.3212967,88.1144825 L40.6351453,88.1144825 C40.4481997,88.1144825 40.207841,88.0079423 40.1550793,87.9280372 L33.9858728,79.5646358 L33.9858728,87.5018766 C33.9858728,87.8481321 33.6914497,88.1411175 33.3449163,88.1411175 L30.2196018,88.1411175 C29.8450591,88.1411175 29.5786453,87.8481321 29.5786453,87.5018766 L29.5786453,70.1351832 Z" id="Fill-7" fill="#283746"></path>
            <path d="M54.4911402,85.6105292 L55.7469981,83.3998212 C55.9606502,83.0535657 56.4680742,83.1068358 56.6543684,83.2400109 C56.7611945,83.293281 58.6847155,84.7055876 60.4473459,84.7055876 C61.5156068,84.7055876 62.2894445,84.039062 62.2894445,83.1068358 C62.2894445,81.9881642 61.3553676,81.1358431 59.5393242,80.4166971 C57.2425633,79.5111058 54.3582589,77.7265584 54.3582589,74.5297044 C54.3582589,71.8934854 56.4140097,69.2293321 60.5274655,69.2293321 C63.3049437,69.2293321 65.4414655,70.6416387 66.2426611,71.2269599 C66.5631394,71.4134051 66.5097263,71.8934854 66.4029002,72.079281 L65.041519,74.1308285 C64.853922,74.4231642 64.3732046,74.6635292 64.1328459,74.4770839 C63.8924872,74.3439088 61.9429111,72.8789818 60.3138133,72.8789818 C59.3523785,72.8789818 58.6313024,73.5182226 58.6313024,74.2373686 C58.6313024,75.222865 59.4324981,75.968646 61.5416619,76.8209672 C63.625422,77.6466533 66.9370307,79.2713905 66.9370307,82.8937555 C66.9370307,85.6371642 64.5601502,88.407208 60.6342915,88.407208 C57.1617923,88.407208 55.2389228,86.9689161 54.6246728,86.3563102 C54.3582589,86.0906095 54.277488,85.9840693 54.4911402,85.6105292" id="Fill-9" fill="#283746"></path>
            <g id="Group-13" transform="translate(76.862672, 68.918482)">
                <mask id="mask-2" fill="white">
                    <use xlink:href="#path-1"></use>
                </mask>
                <g id="Clip-12"></g>
                <path d="M0.478567842,1.08372117 C0.478567842,0.816721168 0.692220016,0.577655474 0.985991755,0.577655474 L12.0431431,0.577655474 C12.3369149,0.577655474 12.550567,0.816721168 12.550567,1.08372117 L12.550567,3.98694015 C12.550567,4.25329051 12.3369149,4.49300584 12.0431431,4.49300584 L4.64478523,4.49300584 L4.64478523,7.79575036 L10.7345236,7.79575036 C11.0009374,7.79575036 11.2412961,8.03546569 11.2412961,8.30181606 L11.2412961,11.2056847 C11.2412961,11.4980204 11.0009374,11.7111007 10.7345236,11.7111007 L4.64478523,11.7111007 L4.64478523,15.3068307 L12.0431431,15.3068307 C12.3369149,15.3068307 12.550567,15.5471956 12.550567,15.813546 L12.550567,18.7161153 C12.550567,18.9831153 12.3369149,19.2228307 12.0431431,19.2228307 L0.985991755,19.2228307 C0.692220016,19.2228307 0.478567842,18.9831153 0.478567842,18.7161153 L0.478567842,1.08372117 Z" id="Fill-11" fill="#283746" mask="url(#mask-2)"></path>
            </g>
        </g>
    </g>
</svg>