<?xml version="1.0" encoding="UTF-8" standalone="no"?>
<svg width="83px" height="83px" viewBox="0 0 83 83" version="1.1" xmlns="http://www.w3.org/2000/svg" xmlns:xlink="http://www.w3.org/1999/xlink">
    <!-- Generator: Sketch 39.1 (31720) - http://www.bohemiancoding.com/sketch -->
    <title>okse-logo-footer-yellow</title>
    <desc>Created with Sketch.</desc>
    <defs></defs>
    <g id="Mørk-topp,-resten-lyst" stroke="none" stroke-width="1" fill="none" fill-rule="evenodd">
        <g id="Desktop-HD" transform="translate(-975.000000, -645.000000)" fill="#F9E93A">
            <g id="okse-logo-footer-yellow" transform="translate(975.000000, 645.000000)">
                <path d="M62.228,68.104 L53.98,61.053 C59.333,59.02 63.098,54.904 63.098,52.54 C63.098,52.54 59.427,55.894 52.453,55.894 C50.21,55.894 47.265,55.313 47.265,55.313 L45.324,56.083 C42.023,57.392 35.755,59.468 33.007,59.469 C32.188,59.398 30.227,57.805 28.537,55.932 C30.908,49.876 35.424,39.477 39.179,33.636 C42.449,34.207 46.173,34.564 50.372,34.618 C51.708,39.148 54.249,42.743 55.551,44.045 C58.603,42.313 62.232,37.075 63.139,33.487 L58.809,32.084 C58.479,33.322 57.159,35.92 56.242,36.838 C55.437,36.034 54.547,31.92 54.547,27.64 C54.547,27.64 48.756,28.481 42.858,28.481 C27.322,28.481 18.392,22.282 18.392,22.282 C18.392,23.559 22.217,28.666 32.124,31.9 C26.711,41.134 21.395,55.202 21.333,55.371 L20.669,57.149 L21.811,58.666 C23.178,60.479 28.022,66.397 32.992,66.397 C36.752,66.397 42.766,64.409 45.907,63.267 L56.076,71.96 C51.564,74.154 46.503,75.387 41.158,75.387 C22.284,75.387 6.928,60.032 6.928,41.157 C6.928,22.283 22.284,6.928 41.158,6.928 C50.494,6.928 58.966,10.689 65.148,16.771 C59.822,15.542 54.87,14.433 51.963,14.433 C46.85,14.433 43.62,17.097 39.457,22.016 C34.085,21.902 28.126,20.166 28.126,20.166 C28.126,21.213 33.879,25.017 42.858,25.017 C43.953,25.017 45.047,24.986 46.099,24.937 C48.479,22.318 50,21.362 51.963,21.362 C56.149,21.362 69.414,24.867 71.464,25.272 C73.965,30.023 75.388,35.426 75.388,41.157 C75.388,52.089 70.23,61.833 62.228,68.104 M41.158,0 C18.463,0 0,18.463 0,41.157 C0,63.852 18.463,82.315 41.158,82.315 C63.853,82.315 82.316,63.852 82.316,41.157 C82.316,18.463 63.853,0 41.158,0" id="Fill-1"></path>
                <path d="M42.342,36.035 C42.323,36.022 42.303,36.012 42.284,36 L39,40.828 C39.019,40.842 39.035,40.856 39.054,40.869 C40.389,41.777 42.207,41.431 43.115,40.096 C44.023,38.761 43.677,36.943 42.342,36.035" id="Fill-3"></path>
            </g>
        </g>
    </g>
</svg>