<?xml version="1.0" encoding="UTF-8" standalone="no"?>
<svg width="100px" height="34px" viewBox="0 0 100 34" version="1.1" xmlns="http://www.w3.org/2000/svg" xmlns:xlink="http://www.w3.org/1999/xlink">
    <!-- Generator: Sketch 40.1 (33804) - http://www.bohemiancoding.com/sketch -->
    <title>okse-footer-logo-blue</title>
    <desc>Created with Sketch.</desc>
    <defs>
        <polygon id="path-1" points="16.5412881 33.220339 0 33.220339 0 0.137966102 16.5412881 0.137966102 33.0825763 0.137966102 33.0825763 33.220339"></polygon>
        <polygon id="path-3" points="7.76305085 12.1544407 7.76305085 0.186983051 0.0358305085 0.186983051 0.0358305085 12.1544407 7.76305085 12.1544407"></polygon>
    </defs>
    <g id="Page-1" stroke="none" stroke-width="1" fill="none" fill-rule="evenodd">
        <g id="Desktop-HD" transform="translate(-71.000000, -68.000000)">
            <g id="okse-footer-logo-blue" transform="translate(71.000000, 68.000000)">
                <g id="Group-3" transform="translate(0.000000, 0.201153)">
                    <mask id="mask-2" fill="white">
                        <use xlink:href="#path-1"></use>
                    </mask>
                    <g id="Clip-2"></g>
                    <path d="M25.0093559,27.5088136 L21.6944407,24.6752542 C23.8456271,23.8579661 25.3588475,22.2037288 25.3588475,21.2535593 C25.3588475,21.2535593 23.8839322,22.6016949 21.0808814,22.6016949 C20.1795254,22.6016949 18.9957966,22.3681356 18.9957966,22.3681356 L18.2157966,22.6776271 C16.888678,23.2033898 14.3696949,24.0383051 13.2656271,24.0383051 C12.9364746,24.0101695 12.148,23.3698305 11.4690169,22.6166102 C12.4218983,20.1830508 14.2368136,16.0037288 15.7459661,13.6562712 C17.0602034,13.8857627 18.5568136,14.0291525 20.2446102,14.0508475 C20.7815593,15.8715254 21.8025763,17.3162712 22.3259661,17.839322 C23.5524068,17.1433898 25.0110508,15.0383051 25.3754576,13.5962712 L23.6351186,13.0322034 C23.5025763,13.5301695 22.9724068,14.5742373 22.6035932,14.9430508 C22.2802034,14.619661 21.9225763,12.9664407 21.9225763,11.2467797 C21.9225763,11.2467797 19.5951186,11.5844068 17.2246102,11.5844068 C10.9805424,11.5844068 7.3920678,9.09322034 7.3920678,9.09322034 C7.3920678,9.60610169 8.92901695,11.6589831 12.9107119,12.9583051 C10.7351186,16.6694915 8.59884746,22.3237288 8.57376271,22.3911864 L8.30698305,23.1061017 L8.7659661,23.7155932 C9.31511864,24.4444068 11.2618983,26.8227119 13.2591864,26.8227119 C14.7707119,26.8227119 17.187661,26.0237288 18.4500339,25.5650847 L22.5368136,29.0586441 C20.7235932,29.94 18.6893559,30.4359322 16.5415593,30.4359322 C8.95579661,30.4359322 2.78461017,24.2647458 2.78461017,16.6789831 C2.78461017,9.09355932 8.95579661,2.92237288 16.5415593,2.92237288 C20.2937627,2.92237288 23.6981695,4.43389831 26.1825763,6.87830508 C24.0422373,6.38440678 22.0524068,5.93864407 20.8839322,5.93864407 C18.8290169,5.93864407 17.5310508,7.00915254 15.8574915,8.98610169 C13.6985085,8.94033898 11.3039322,8.24271186 11.3039322,8.24271186 C11.3039322,8.66338983 13.6157966,10.1922034 17.2246102,10.1922034 C17.6649492,10.1922034 18.1042712,10.18 18.5269831,10.16 C19.4839322,9.10745763 20.0947797,8.72338983 20.8839322,8.72338983 C22.5663051,8.72338983 27.8971525,10.1322034 28.7212203,10.2945763 C29.7263051,12.2040678 30.2981695,14.3755932 30.2981695,16.6789831 C30.2981695,21.0725424 28.2256271,24.9884746 25.0093559,27.5088136 M16.5415593,0.137966102 C7.42054237,0.137966102 -0.00013559322,7.55830508 -0.00013559322,16.6789831 C-0.00013559322,25.8 7.42054237,33.220339 16.5415593,33.220339 C25.6622373,33.220339 33.0825763,25.8 33.0825763,16.6789831 C33.0825763,7.55830508 25.6622373,0.137966102 16.5415593,0.137966102" id="Fill-1" fill="#283746" mask="url(#mask-2)"></path>
                </g>
                <path d="M16.9958644,14.7808814 C16.9884068,14.7757966 16.9802712,14.7713898 16.9724746,14.7666441 L15.6528136,16.7069831 C15.6602712,16.7127458 15.6670508,16.7185085 15.6745085,16.7235932 C16.2111186,17.088678 16.9416271,16.9493559 17.3063729,16.4127458 C17.6714576,15.8764746 17.5321356,15.1459661 16.9958644,14.7808814" id="Fill-4" fill="#283746"></path>
                <path d="M48.8691525,20.2995254 C50.7494915,20.2995254 52.2884746,18.7608814 52.2884746,16.8974915 C52.2884746,15.0168136 50.7494915,13.4612203 48.8691525,13.4612203 C47.0054237,13.4612203 45.4671186,15.0168136 45.4671186,16.8974915 C45.4671186,18.7608814 47.0054237,20.2995254 48.8691525,20.2995254 M48.8691525,10.7256271 C52.2884746,10.7256271 55.0237288,13.4785085 55.0237288,16.8974915 C55.0237288,20.3168136 52.2884746,23.0347797 48.8691525,23.0347797 C45.4498305,23.0347797 42.7318644,20.3168136 42.7318644,16.8974915 C42.7318644,13.4785085 45.4498305,10.7256271 48.8691525,10.7256271" id="Fill-6" fill="#283746"></path>
                <path d="M61.6656271,11.3070508 C61.6656271,11.0850169 61.8364746,10.8968814 62.0757966,10.8968814 L64.0761356,10.8968814 C64.2981695,10.8968814 64.4866441,11.0850169 64.4866441,11.3070508 L64.4866441,15.803322 L68.2815593,11.0677288 C68.3500339,10.9819661 68.5039322,10.8968814 68.6063051,10.8968814 L70.7605424,10.8968814 C71.0852881,10.8968814 71.2564746,11.2728136 71.068,11.5290847 L67.068,16.5385763 L71.427322,22.2141695 C71.6151186,22.4704407 71.427322,22.8470508 71.1025763,22.8470508 L68.7432542,22.8470508 C68.6235932,22.8470508 68.4696949,22.7785763 68.4354576,22.7270508 L64.4866441,17.3589153 L64.4866441,22.4534915 C64.4866441,22.6758644 64.2981695,22.864 64.0761356,22.864 L62.0757966,22.864 C61.8364746,22.864 61.6656271,22.6758644 61.6656271,22.4534915 L61.6656271,11.3070508 Z" id="Fill-8" fill="#283746"></path>
                <path d="M77.6125424,21.239661 L78.4166102,19.820678 C78.5532203,19.5983051 78.8779661,19.6328814 78.9972881,19.7183051 C79.0657627,19.7525424 80.2966102,20.6586441 81.4254237,20.6586441 C82.1091525,20.6586441 82.6044068,20.2311864 82.6044068,19.6328814 C82.6044068,18.9145763 82.0064407,18.3674576 80.8437288,17.9061017 C79.3738983,17.3247458 77.5274576,16.179322 77.5274576,14.1277966 C77.5274576,12.4352542 78.8433898,10.7257627 81.4766102,10.7257627 C83.2545763,10.7257627 84.6220339,11.6318644 85.1349153,12.0077966 C85.34,12.1277966 85.3061017,12.4352542 85.2376271,12.5549153 L84.3657627,13.8715254 C84.2457627,14.059322 83.9383051,14.2132203 83.7844068,14.0938983 C83.6301695,14.0081356 82.3827119,13.0681356 81.339661,13.0681356 C80.7244068,13.0681356 80.2627119,13.4783051 80.2627119,13.939661 C80.2627119,14.5725424 80.7755932,15.0511864 82.1257627,15.5983051 C83.459661,16.1281356 85.579661,17.1711864 85.579661,19.4962712 C85.579661,21.2569492 84.0579661,23.0349153 81.5447458,23.0349153 C79.3220339,23.0349153 78.0911864,22.1115254 77.6983051,21.7183051 C77.5274576,21.5477966 77.4759322,21.479322 77.6125424,21.239661" id="Fill-10" fill="#283746"></path>
                <g id="Group-14" transform="translate(92.203390, 10.709627)">
                    <mask id="mask-4" fill="white">
                        <use xlink:href="#path-3"></use>
                    </mask>
                    <g id="Clip-13"></g>
                    <path d="M0.0358305085,0.512067797 C0.0358305085,0.340881356 0.172440678,0.186983051 0.360576271,0.186983051 L7.43854237,0.186983051 C7.62633898,0.186983051 7.76328814,0.340881356 7.76328814,0.512067797 L7.76328814,2.37545763 C7.76328814,2.54630508 7.62633898,2.70020339 7.43854237,2.70020339 L2.70294915,2.70020339 L2.70294915,4.82020339 L6.60057627,4.82020339 C6.77142373,4.82020339 6.92532203,4.97410169 6.92532203,5.14494915 L6.92532203,7.00867797 C6.92532203,7.19647458 6.77142373,7.33308475 6.60057627,7.33308475 L2.70294915,7.33308475 L2.70294915,9.64088136 L7.43854237,9.64088136 C7.62633898,9.64088136 7.76328814,9.79511864 7.76328814,9.9659661 L7.76328814,11.8293559 C7.76328814,12.0005424 7.62633898,12.1544407 7.43854237,12.1544407 L0.360576271,12.1544407 C0.172440678,12.1544407 0.0358305085,12.0005424 0.0358305085,11.8293559 L0.0358305085,0.512067797 Z" id="Fill-12" fill="#283746" mask="url(#mask-4)"></path>
                </g>
            </g>
        </g>
    </g>
</svg>