<?xml version="1.0" encoding="UTF-8" standalone="no"?>
<svg width="100px" height="34px" viewBox="0 0 100 34" version="1.1" xmlns="http://www.w3.org/2000/svg" xmlns:xlink="http://www.w3.org/1999/xlink">
    <!-- Generator: Sketch 40.1 (33804) - http://www.bohemiancoding.com/sketch -->
    <title>okse-footer-logo-yellow</title>
    <desc>Created with Sketch.</desc>
    <defs>
        <polygon id="path-1" points="16.5412881 33.0823729 0 33.0823729 0 0 16.5412881 0 33.0825763 0 33.0825763 33.0823729"></polygon>
        <polygon id="path-3" points="7.72722034 11.9674576 7.72722034 4.81723889e-15 0 0 0 11.9674576 7.72722034 11.9674576"></polygon>
    </defs>
    <g id="Page-1" stroke="none" stroke-width="1" fill="none" fill-rule="evenodd">
        <g id="Desktop-HD" transform="translate(-71.000000, -121.000000)">
            <g id="okse-footer-logo-yellow" transform="translate(71.000000, 121.000000)">
                <g id="Group-3" transform="translate(0.000000, 0.201153)">
                    <mask id="mask-2" fill="white">
                        <use xlink:href="#path-1"></use>
                    </mask>
                    <g id="Clip-2"></g>
                    <path d="M25.0094915,27.3708475 L21.6945763,24.5372881 C23.8457627,23.72 25.3589831,22.0657627 25.3589831,21.1155932 C25.3589831,21.1155932 23.8840678,22.4637288 21.0810169,22.4637288 C20.179661,22.4637288 18.9959322,22.2301695 18.9959322,22.2301695 L18.2159322,22.539661 C16.8888136,23.0654237 14.3698305,23.900339 13.2657627,23.900339 C12.9366102,23.8722034 12.1481356,23.2318644 11.4691525,22.4786441 C12.4220339,20.0450847 14.2369492,15.8657627 15.7461017,13.5183051 C17.060339,13.7477966 18.5569492,13.8911864 20.2447458,13.9128814 C20.7816949,15.7335593 21.8027119,17.1783051 22.3261017,17.7013559 C23.5525424,17.0054237 25.0111864,14.900339 25.3755932,13.4583051 L23.6352542,12.8942373 C23.5027119,13.3922034 22.9725424,14.4362712 22.6037288,14.8050847 C22.280339,14.4816949 21.9227119,12.8284746 21.9227119,11.1088136 C21.9227119,11.1088136 19.5952542,11.4464407 17.2247458,11.4464407 C10.980678,11.4464407 7.39220339,8.95525424 7.39220339,8.95525424 C7.39220339,9.46813559 8.92915254,11.5210169 12.9108475,12.820339 C10.7352542,16.5315254 8.59898305,22.1857627 8.57389831,22.2532203 L8.30711864,22.9681356 L8.76610169,23.5776271 C9.31525424,24.3064407 11.2620339,26.6847458 13.259322,26.6847458 C14.7708475,26.6847458 17.1877966,25.8857627 18.4501695,25.4271186 L22.5369492,28.920678 C20.7237288,29.8020339 18.6894915,30.2979661 16.5416949,30.2979661 C8.9559322,30.2979661 2.78474576,24.1267797 2.78474576,16.5410169 C2.78474576,8.95559322 8.9559322,2.78440678 16.5416949,2.78440678 C20.2938983,2.78440678 23.6983051,4.2959322 26.1827119,6.74033898 C24.0423729,6.24644068 22.0525424,5.80067797 20.8840678,5.80067797 C18.8291525,5.80067797 17.5311864,6.87118644 15.8576271,8.84813559 C13.6986441,8.80237288 11.3040678,8.10474576 11.3040678,8.10474576 C11.3040678,8.52542373 13.6159322,10.0542373 17.2247458,10.0542373 C17.6650847,10.0542373 18.1044068,10.0420339 18.5271186,10.0220339 C19.4840678,8.96949153 20.0949153,8.58542373 20.8840678,8.58542373 C22.5664407,8.58542373 27.8972881,9.99423729 28.7213559,10.1566102 C29.7264407,12.0661017 30.2983051,14.2376271 30.2983051,16.5410169 C30.2983051,20.9345763 28.2257627,24.8505085 25.0094915,27.3708475 M16.5416949,0 C7.42067797,0 0,7.42033898 0,16.5410169 C0,25.6620339 7.42067797,33.0823729 16.5416949,33.0823729 C25.6623729,33.0823729 33.0827119,25.6620339 33.0827119,16.5410169 C33.0827119,7.42033898 25.6623729,0 16.5416949,0" id="Fill-1" fill="#F9E93A" mask="url(#mask-2)"></path>
                </g>
                <path d="M17.3430508,15.0142373 C17.3355932,15.0091525 17.3274576,15.0047458 17.319661,15 L16,16.940339 C16.0074576,16.9461017 16.0142373,16.9518644 16.0216949,16.9569492 C16.5583051,17.3220339 17.2888136,17.1827119 17.6535593,16.6461017 C18.0186441,16.1098305 17.879322,15.379322 17.3430508,15.0142373" id="Fill-4" fill="#F9E93A"></path>
                <path d="M49.1372881,20.5738983 C51.0176271,20.5738983 52.5566102,19.0352542 52.5566102,17.1718644 C52.5566102,15.2911864 51.0176271,13.7355932 49.1372881,13.7355932 C47.2735593,13.7355932 45.7352542,15.2911864 45.7352542,17.1718644 C45.7352542,19.0352542 47.2735593,20.5738983 49.1372881,20.5738983 M49.1372881,11 C52.5566102,11 55.2918644,13.7528814 55.2918644,17.1718644 C55.2918644,20.5911864 52.5566102,23.3091525 49.1372881,23.3091525 C45.7179661,23.3091525 43,20.5911864 43,17.1718644 C43,13.7528814 45.7179661,11 49.1372881,11" id="Fill-6" fill="#F9E93A"></path>
                <path d="M62,11.4101695 C62,11.1881356 62.1708475,11 62.4101695,11 L64.4105085,11 C64.6325424,11 64.8210169,11.1881356 64.8210169,11.4101695 L64.8210169,15.9064407 L68.6159322,11.1708475 C68.6844068,11.0850847 68.8383051,11 68.940678,11 L71.0949153,11 C71.419661,11 71.5908475,11.3759322 71.4023729,11.6322034 L67.4023729,16.6416949 L71.7616949,22.3172881 C71.9494915,22.5735593 71.7616949,22.9501695 71.4369492,22.9501695 L69.0776271,22.9501695 C68.9579661,22.9501695 68.8040678,22.8816949 68.7698305,22.8301695 L64.8210169,17.4620339 L64.8210169,22.5566102 C64.8210169,22.7789831 64.6325424,22.9671186 64.4105085,22.9671186 L62.4101695,22.9671186 C62.1708475,22.9671186 62,22.7789831 62,22.5566102 L62,11.4101695 Z" id="Fill-8" fill="#F9E93A"></path>
                <path d="M77.0850847,21.5138983 L77.8891525,20.0949153 C78.0257627,19.8725424 78.3505085,19.9071186 78.4698305,19.9925424 C78.5383051,20.0267797 79.7691525,20.9328814 80.8979661,20.9328814 C81.5816949,20.9328814 82.0769492,20.5054237 82.0769492,19.9071186 C82.0769492,19.1888136 81.4789831,18.6416949 80.3162712,18.180339 C78.8464407,17.5989831 77,16.4535593 77,14.4020339 C77,12.7094915 78.3159322,11 80.9491525,11 C82.7271186,11 84.0945763,11.9061017 84.6074576,12.2820339 C84.8125424,12.4020339 84.7786441,12.7094915 84.7101695,12.8291525 L83.8383051,14.1457627 C83.7183051,14.3335593 83.4108475,14.4874576 83.2569492,14.3681356 C83.1027119,14.2823729 81.8552542,13.3423729 80.8122034,13.3423729 C80.1969492,13.3423729 79.7352542,13.7525424 79.7352542,14.2138983 C79.7352542,14.8467797 80.2481356,15.3254237 81.5983051,15.8725424 C82.9322034,16.4023729 85.0522034,17.4454237 85.0522034,19.7705085 C85.0522034,21.5311864 83.5305085,23.3091525 81.0172881,23.3091525 C78.7945763,23.3091525 77.5637288,22.3857627 77.1708475,21.9925424 C77,21.8220339 76.9484746,21.7535593 77.0850847,21.5138983" id="Fill-10" fill="#F9E93A"></path>
                <g id="Group-14" transform="translate(92.203390, 10.709627)">
                    <mask id="mask-4" fill="white">
                        <use xlink:href="#path-3"></use>
                    </mask>
                    <g id="Clip-13"></g>
                    <path d="M0,0.325084746 C0,0.153898305 0.136610169,0 0.324745763,0 L7.40271186,0 C7.59050847,0 7.72745763,0.153898305 7.72745763,0.325084746 L7.72745763,2.18847458 C7.72745763,2.35932203 7.59050847,2.51322034 7.40271186,2.51322034 L2.66711864,2.51322034 L2.66711864,4.63322034 L6.56474576,4.63322034 C6.73559322,4.63322034 6.88949153,4.78711864 6.88949153,4.9579661 L6.88949153,6.82169492 C6.88949153,7.00949153 6.73559322,7.14610169 6.56474576,7.14610169 L2.66711864,7.14610169 L2.66711864,9.45389831 L7.40271186,9.45389831 C7.59050847,9.45389831 7.72745763,9.60813559 7.72745763,9.77898305 L7.72745763,11.6423729 C7.72745763,11.8135593 7.59050847,11.9674576 7.40271186,11.9674576 L0.324745763,11.9674576 C0.136610169,11.9674576 0,11.8135593 0,11.6423729 L0,0.325084746 Z" id="Fill-12" fill="#F9E93A" mask="url(#mask-4)"></path>
                </g>
            </g>
        </g>
    </g>
</svg>