<?xml version="1.0" encoding="UTF-8"?>
<svg width="24px" height="31px" viewBox="0 0 24 31" version="1.1" xmlns="http://www.w3.org/2000/svg" xmlns:xlink="http://www.w3.org/1999/xlink">
    <!-- Generator: Sketch 41.2 (35397) - http://www.bohemiancoding.com/sketch -->
    <title>Path</title>
    <desc>Created with Sketch.</desc>
    <defs></defs>
    <g id="Page-1" stroke="none" stroke-width="1" fill="none" fill-rule="evenodd">
        <g id="Desktop-HD" transform="translate(-214.000000, -526.000000)" fill="#283746">
            <path d="M233.064518,534.45988 C232.429031,533.625803 231.555249,532.900961 230.443147,532.285333 C229.331044,531.669705 228.119665,531.361896 226.808973,531.361896 C225.657153,531.361896 224.604643,531.6002 223.651412,532.076815 C222.698182,532.553431 222.221573,533.347777 222.221573,534.45988 C222.221573,535.571982 222.747828,536.3564 223.800354,536.813156 C224.852879,537.269913 226.391927,537.736592 228.417542,538.213207 C229.489926,538.451515 230.572224,538.769253 231.664468,539.166433 C232.756711,539.563612 233.749645,540.089867 234.643299,540.745213 C235.536952,541.400559 236.261794,542.214765 236.817845,543.187855 C237.373896,544.160944 237.651918,545.342535 237.651918,546.732664 C237.651918,548.480253 237.32425,549.959724 236.668904,551.171122 C236.013558,552.382519 235.139776,553.365523 234.047532,554.120164 C232.955289,554.874805 231.684334,555.420919 230.234629,555.758521 C228.784924,556.096124 227.285594,556.264923 225.736594,556.264923 C223.512389,556.264923 221.347794,555.85782 219.242742,555.043602 C217.137691,554.229384 215.390128,553.067652 214,551.55837 L218.706553,547.1497 C219.500912,548.182366 220.533563,549.036289 221.804537,549.711494 C223.075511,550.3867 224.485477,550.724297 226.034477,550.724297 C226.55081,550.724297 227.077065,550.664721 227.613258,550.545567 C228.14945,550.426413 228.645917,550.237756 229.102673,549.979589 C229.559429,549.721423 229.926815,549.373896 230.20484,548.936998 C230.482866,548.500101 230.621877,547.963917 230.621877,547.32843 C230.621877,546.136891 230.075763,545.282968 228.98352,544.766635 C227.891276,544.250302 226.252936,543.733976 224.068449,543.217643 C222.996064,542.979335 221.953484,542.671526 220.940676,542.294205 C219.927869,541.916885 219.024299,541.420418 218.22994,540.80479 C217.435581,540.189162 216.800103,539.424603 216.323488,538.51109 C215.846873,537.597577 215.608569,536.465633 215.608569,535.115223 C215.608569,533.526505 215.936237,532.156256 216.591583,531.004436 C217.246929,529.852616 218.110781,528.909329 219.183166,528.174547 C220.25555,527.439765 221.46693,526.893651 222.81734,526.53619 C224.16775,526.178728 225.557857,526 226.987703,526 C229.053036,526 231.068692,526.357456 233.03473,527.072379 C235.000768,527.787302 236.559674,528.879529 237.711494,530.349093 L233.064518,534.45988 Z" id="Path"></path>
        </g>
    </g>
</svg>