<?xml version="1.0" encoding="UTF-8"?>
<svg width="107px" height="38px" viewBox="0 0 107 38" version="1.1" xmlns="http://www.w3.org/2000/svg" xmlns:xlink="http://www.w3.org/1999/xlink">
    <!-- Generator: Sketch 41.2 (35397) - http://www.bohemiancoding.com/sketch -->
    <title>stut</title>
    <desc>Created with Sketch.</desc>
    <defs></defs>
    <g id="Page-1" stroke="none" stroke-width="1" fill="none" fill-rule="evenodd">
        <g id="Desktop-HD" transform="translate(-210.000000, -399.000000)" fill="#283746">
            <path d="M229.784518,415.194957 C229.149031,414.360881 228.275249,413.636039 227.163147,413.020411 C226.051044,412.404783 224.839665,412.096973 223.528973,412.096973 C222.377153,412.096973 221.324643,412.335277 220.371412,412.811893 C219.418182,413.288508 218.941573,414.082855 218.941573,415.194957 C218.941573,416.30706 219.467828,417.091477 220.520354,417.548234 C221.572879,418.00499 223.111927,418.471669 225.137542,418.948284 C226.209926,419.186592 227.292224,419.504331 228.384468,419.90151 C229.476711,420.29869 230.469645,420.824945 231.363299,421.480291 C232.256952,422.135637 232.981794,422.949842 233.537845,423.922932 C234.093896,424.896022 234.371918,426.077613 234.371918,427.467741 C234.371918,429.21533 234.04425,430.694802 233.388904,431.906199 C232.733558,433.117596 231.859776,434.100601 230.767532,434.855242 C229.675289,435.609883 228.404334,436.155996 226.954629,436.493599 C225.504924,436.831201 224.005594,437 222.456594,437 C220.232389,437 218.067794,436.592897 215.962742,435.778679 C213.857691,434.964461 212.110128,433.802729 210.72,432.293447 L215.426553,427.884777 C216.220912,428.917444 217.253563,429.771367 218.524537,430.446572 C219.795511,431.121777 221.205477,431.459374 222.754477,431.459374 C223.27081,431.459374 223.797065,431.399798 224.333258,431.280645 C224.86945,431.161491 225.365917,430.972833 225.822673,430.714667 C226.279429,430.4565 226.646815,430.108973 226.92484,429.672076 C227.202866,429.235178 227.341877,428.698994 227.341877,428.063507 C227.341877,426.871969 226.795763,426.018046 225.70352,425.501712 C224.611276,424.985379 222.972936,424.469054 220.788449,423.95272 C219.716064,423.714413 218.673484,423.406603 217.660676,423.029283 C216.647869,422.651962 215.744299,422.155495 214.94994,421.539867 C214.155581,420.924239 213.520103,420.15968 213.043488,419.246167 C212.566873,418.332655 212.328569,417.20071 212.328569,415.8503 C212.328569,414.261582 212.656237,412.891334 213.311583,411.739513 C213.966929,410.587693 214.830781,409.644406 215.903166,408.909624 C216.97555,408.174842 218.18693,407.628728 219.53734,407.271267 C220.88775,406.913805 222.277857,406.735077 223.707703,406.735077 C225.773036,406.735077 227.788692,407.092534 229.75473,407.807457 C231.720768,408.52238 233.279674,409.614607 234.431494,411.084171 L229.784518,415.194957 Z M238.442987,413.288506 L238.442987,407.56915 L243.447423,407.56915 L243.447423,399.288 L250.477464,399.288 L250.477464,407.56915 L257.626658,407.56915 L257.626658,413.288506 L250.477464,413.288506 L250.477464,426.574092 C250.477464,427.845066 250.705839,428.897576 251.162595,429.731652 C251.619351,430.565729 252.642073,430.982761 254.230791,430.982761 C254.707406,430.982761 255.223732,430.933115 255.779783,430.83382 C256.335834,430.734525 256.832301,430.585585 257.269199,430.386995 L257.507505,435.987197 C256.872018,436.225505 256.117388,436.414163 255.243593,436.553175 C254.369799,436.692188 253.535734,436.761694 252.741375,436.761694 C250.834914,436.761694 249.285938,436.493601 248.094399,435.957409 C246.902861,435.421217 245.959574,434.686446 245.26451,433.753074 C244.569446,432.819703 244.092838,431.747334 243.834671,430.535937 C243.576504,429.324539 243.447423,428.023796 243.447423,426.633668 L243.447423,413.288506 L238.442987,413.288506 Z M290.890271,436.165927 L284.098536,436.165927 L284.098536,431.578528 L283.979383,431.578528 C283.343896,433.008374 282.241739,434.269399 280.672881,435.361643 C279.104022,436.453886 277.247236,437 275.102467,437 C273.235723,437 271.6371,436.672332 270.306549,436.016986 C268.975998,435.36164 267.883771,434.497787 267.029835,433.425403 C266.175899,432.353018 265.550351,431.121781 265.153171,429.731652 C264.755992,428.341524 264.557405,426.9117 264.557405,425.442136 L264.557405,407.56915 L271.706599,407.56915 L271.706599,423.416531 C271.706599,424.250608 271.766175,425.124389 271.885329,426.037902 C272.004483,426.951415 272.262646,427.77555 272.659825,428.510332 C273.057005,429.245114 273.603118,429.850803 274.298182,430.327419 C274.993246,430.804034 275.916675,431.042338 277.068495,431.042338 C278.180598,431.042338 279.163602,430.813963 280.017538,430.357207 C280.871474,429.900451 281.566527,429.31462 282.102719,428.599697 C282.638912,427.884774 283.046014,427.060639 283.32404,426.127267 C283.602066,425.193895 283.741076,424.250608 283.741076,423.297378 L283.741076,407.56915 L290.890271,407.56915 L290.890271,436.165927 Z M297.344405,413.288506 L297.344405,407.56915 L302.348841,407.56915 L302.348841,399.288 L309.378882,399.288 L309.378882,407.56915 L316.528076,407.56915 L316.528076,413.288506 L309.378882,413.288506 L309.378882,426.574092 C309.378882,427.845066 309.607256,428.897576 310.064013,429.731652 C310.520769,430.565729 311.543491,430.982761 313.132209,430.982761 C313.608824,430.982761 314.125149,430.933115 314.681201,430.83382 C315.237252,430.734525 315.733719,430.585585 316.170616,430.386995 L316.408923,435.987197 C315.773436,436.225505 315.018806,436.414163 314.145011,436.553175 C313.271216,436.692188 312.437152,436.761694 311.642793,436.761694 C309.736332,436.761694 308.187355,436.493601 306.995817,435.957409 C305.804278,435.421217 304.860991,434.686446 304.165927,433.753074 C303.470863,432.819703 302.994255,431.747334 302.736089,430.535937 C302.477922,429.324539 302.348841,428.023796 302.348841,426.633668 L302.348841,413.288506 L297.344405,413.288506 Z" id="stut"></path>
        </g>
    </g>
</svg>