<?xml version="1.0" standalone="no"?>
<!DOCTYPE svg PUBLIC "-//W3C//DTD SVG 20010904//EN"
 "http://www.w3.org/TR/2001/REC-SVG-20010904/DTD/svg10.dtd">
<svg version="1.0" xmlns="http://www.w3.org/2000/svg"
 width="16.000000pt" height="16.000000pt" viewBox="0 0 16.000000 16.000000"
 preserveAspectRatio="xMidYMid meet">
<metadata>
Created by potrace 1.11, written by Peter Selinger 2001-2013
</metadata>
<g transform="translate(0.000000,16.000000) scale(0.001613,-0.001613)"
fill="#000000" stroke="none">
<path d="M4956 9912 c-3 -2 -36 -5 -74 -7 -38 -2 -94 -6 -123 -10 -30 -3 -76
-8 -103 -11 -27 -3 -58 -7 -69 -10 -11 -2 -42 -6 -69 -9 -27 -3 -72 -10 -101
-16 -28 -5 -70 -12 -91 -15 -21 -2 -42 -6 -45 -8 -4 -3 -26 -7 -51 -11 -25 -4
-47 -8 -51 -10 -3 -2 -21 -7 -40 -10 -19 -3 -61 -13 -94 -21 -33 -9 -67 -17
-75 -19 -8 -2 -35 -9 -60 -16 -53 -15 -44 -12 -100 -28 -25 -6 -52 -15 -60
-18 -8 -4 -17 -7 -20 -8 -25 -6 -89 -28 -105 -36 -12 -6 -27 -11 -35 -13 -8
-2 -28 -9 -45 -15 -16 -7 -34 -14 -40 -15 -5 -2 -23 -8 -38 -14 -16 -7 -33
-12 -38 -12 -5 0 -9 -4 -9 -10 0 -5 -3 -10 -7 -9 -5 1 -19 -2 -33 -7 -31 -10
-283 -134 -290 -142 -3 -4 -12 -8 -20 -10 -8 -2 -31 -13 -50 -26 -19 -12 -78
-49 -130 -81 -52 -33 -97 -63 -98 -67 -2 -4 -8 -8 -14 -8 -5 0 -55 -35 -111
-77 -229 -176 -447 -407 -597 -633 -8 -12 -19 -28 -25 -34 -5 -6 -19 -27 -29
-46 -11 -19 -31 -53 -45 -75 -34 -54 -134 -257 -134 -272 0 -7 -4 -13 -9 -13
-4 0 -8 -8 -8 -18 0 -10 -3 -22 -8 -26 -4 -4 -7 -11 -7 -14 0 -6 -19 -61 -42
-122 -3 -8 -7 -19 -8 -25 -2 -5 -15 -56 -29 -111 -28 -108 -31 -120 -40 -180
-4 -22 -8 -46 -11 -54 -2 -8 -6 -37 -10 -65 -3 -27 -8 -63 -10 -80 -30 -224
-23 -597 16 -845 6 -36 13 -78 16 -95 11 -73 49 -208 85 -305 38 -103 95 -228
114 -250 7 -8 13 -19 14 -25 4 -31 183 -289 260 -375 79 -89 184 -191 251
-245 41 -32 79 -64 84 -70 6 -6 64 -47 130 -90 66 -44 122 -82 125 -85 3 -3
16 -11 30 -17 14 -7 50 -27 80 -44 87 -50 174 -94 183 -91 4 1 7 -3 7 -8 0 -5
3 -9 8 -8 4 0 34 -11 67 -27 73 -33 107 -47 120 -50 6 -2 31 -12 55 -23 25
-11 56 -23 70 -26 14 -4 34 -11 45 -16 22 -10 320 -111 338 -114 18 -4 130
-37 147 -43 8 -3 24 -8 35 -10 11 -2 31 -7 45 -13 14 -5 84 -23 155 -40 72
-17 148 -35 170 -41 22 -5 50 -12 63 -14 12 -3 31 -7 42 -10 11 -3 28 -7 38
-9 9 -3 82 -21 162 -41 80 -21 150 -38 155 -40 6 -1 17 -5 25 -8 13 -5 93 -26
275 -74 33 -8 65 -19 70 -24 6 -4 26 -11 43 -14 18 -3 52 -12 75 -21 23 -8 47
-16 52 -17 6 -2 16 -6 23 -10 6 -5 12 -6 12 -3 0 3 24 -3 53 -15 28 -11 59
-22 67 -24 17 -3 123 -42 155 -55 11 -4 79 -32 150 -61 139 -57 241 -108 291
-146 17 -13 34 -23 38 -23 7 0 51 -38 105 -91 111 -109 187 -255 222 -424 26
-131 15 -393 -23 -505 -7 -19 -12 -39 -13 -45 0 -5 -15 -41 -34 -80 -52 -109
-173 -261 -252 -318 -77 -55 -159 -108 -194 -124 -22 -10 -42 -21 -45 -24 -5
-7 -186 -80 -205 -83 -5 -1 -14 -4 -20 -8 -9 -6 -162 -44 -210 -53 -194 -36
-208 -37 -460 -38 -205 -2 -334 4 -406 18 -28 6 -95 16 -129 21 -29 3 -73 12
-115 21 -16 4 -34 8 -40 9 -5 0 -17 3 -25 6 -21 8 -130 38 -159 44 -13 3 -40
12 -60 20 -20 9 -43 17 -51 19 -39 8 -217 85 -327 141 -130 66 -324 183 -399
240 -24 19 -47 34 -50 34 -2 0 -17 12 -32 26 -15 14 -39 33 -54 42 -16 9 -28
20 -28 24 0 4 -4 8 -9 8 -20 0 -285 256 -366 354 -22 26 -51 61 -65 78 l-25
29 -62 -58 c-33 -32 -107 -101 -163 -153 -126 -117 -267 -249 -333 -312 -27
-27 -51 -48 -52 -48 -2 0 -32 -28 -67 -62 -35 -35 -93 -90 -129 -122 -35 -33
-127 -118 -203 -190 -77 -72 -151 -142 -166 -156 -15 -14 -83 -78 -152 -142
-69 -65 -137 -128 -152 -141 l-27 -24 103 -104 c124 -124 178 -174 278 -257
41 -34 84 -70 95 -80 33 -29 164 -122 265 -189 52 -35 100 -68 107 -73 7 -6
17 -10 23 -10 5 0 10 -4 10 -10 0 -5 5 -10 11 -10 6 0 23 -9 37 -19 79 -56
448 -240 632 -316 63 -26 124 -51 135 -55 32 -14 139 -52 150 -54 6 -1 15 -4
20 -7 8 -5 79 -31 95 -34 3 -1 32 -10 65 -20 33 -11 62 -19 65 -20 3 -1 37
-11 76 -23 67 -21 319 -85 374 -96 14 -2 59 -11 100 -20 41 -8 89 -17 105 -20
17 -3 41 -7 55 -10 47 -9 165 -27 205 -31 22 -3 65 -7 95 -11 30 -3 71 -7 90
-10 102 -11 317 -25 365 -23 22 0 47 1 55 0 45 -4 354 -2 470 3 148 6 243 14
405 32 139 16 198 24 280 40 17 3 37 6 45 6 8 0 33 4 55 9 38 8 68 13 138 24
17 3 40 8 49 11 9 3 27 7 40 9 55 11 93 20 173 40 33 9 68 18 78 20 68 16 291
88 346 112 18 8 39 16 45 17 6 1 20 7 31 13 11 6 22 11 25 11 23 0 279 123
390 187 36 21 74 43 85 49 86 50 315 215 315 227 0 4 8 10 18 13 37 12 327
309 410 421 95 128 202 294 202 313 0 7 4 12 9 12 7 0 111 199 117 225 1 6 11
30 22 55 21 50 35 82 36 90 1 3 13 41 28 85 31 94 73 261 83 325 4 25 9 54 12
65 7 36 14 83 28 195 13 109 18 219 18 415 0 258 -7 354 -34 495 -6 30 -13 69
-15 85 -3 17 -10 48 -16 70 -6 22 -13 48 -15 59 -3 18 -48 158 -60 186 -3 8
-5 18 -5 23 1 4 -3 7 -9 7 -5 0 -8 4 -5 8 8 13 -121 266 -156 306 -10 11 -18
24 -18 28 0 8 -77 125 -90 138 -3 3 -21 25 -40 50 -57 73 -164 196 -211 240
-61 57 -183 166 -202 179 -12 8 -24 17 -27 20 -23 27 -264 188 -385 258 -149
87 -483 245 -565 267 -14 4 -36 12 -50 18 -14 6 -34 14 -45 18 -30 12 -207 72
-219 75 -6 1 -18 5 -26 8 -33 12 -148 48 -168 52 -12 2 -26 6 -31 9 -5 3 -51
17 -102 31 -163 45 -243 67 -261 71 -10 2 -28 6 -40 9 -13 3 -43 10 -68 16
-25 5 -61 14 -80 19 -46 12 -104 26 -160 40 -147 36 -155 38 -155 40 0 1 -9 3
-20 5 -11 1 -40 8 -65 14 -25 7 -52 14 -60 15 -8 2 -22 6 -30 9 -24 9 -153 45
-180 51 -14 3 -86 24 -160 46 -74 22 -142 43 -150 45 -8 2 -16 4 -17 5 -2 2
-6 3 -10 4 -16 4 -110 36 -183 61 -76 26 -86 30 -153 60 -21 9 -46 18 -55 20
-27 5 -197 87 -200 96 -2 5 -8 9 -14 9 -6 0 -26 11 -44 25 -18 14 -35 25 -38
25 -11 0 -115 106 -151 154 -31 42 -95 156 -95 171 -1 7 -5 24 -18 65 -20 64
-26 124 -26 245 0 144 8 201 40 299 21 63 75 171 105 211 39 50 164 169 195
185 16 8 38 23 48 33 11 9 28 17 38 17 10 0 18 5 18 10 0 6 4 10 10 10 5 0 37
13 70 29 33 16 60 27 60 25 0 -2 18 5 40 16 21 11 47 21 57 23 10 1 23 6 29 9
6 4 44 16 85 28 119 34 138 38 242 55 17 3 39 8 47 10 15 4 88 12 195 22 53 4
350 7 350 3 0 -1 25 -4 55 -6 87 -7 264 -35 308 -48 9 -3 33 -8 52 -11 58 -10
206 -58 325 -105 96 -38 293 -136 312 -156 8 -8 19 -14 24 -14 10 0 240 -147
249 -159 3 -4 25 -21 50 -38 25 -17 55 -41 67 -52 12 -12 24 -21 27 -21 17 0
249 -231 313 -312 25 -32 50 -58 55 -58 8 0 26 15 108 90 15 14 56 50 90 80
35 30 68 59 74 65 17 16 189 167 209 185 11 8 36 31 57 50 21 19 51 46 66 59
16 13 49 43 74 65 25 23 79 70 120 106 41 36 97 85 125 110 27 25 54 50 61 55
6 6 39 35 74 65 35 30 82 72 104 92 23 20 52 46 66 58 14 12 54 48 90 79 36
32 88 79 117 104 l51 45 -26 33 c-102 126 -300 329 -401 409 -24 19 -48 40
-55 46 -29 27 -209 156 -279 200 -43 27 -94 59 -113 71 -19 12 -34 20 -34 16
0 -3 -8 1 -17 9 -25 21 -173 98 -189 98 -8 0 -14 5 -14 10 0 6 -4 10 -9 10 -4
0 -39 14 -77 32 -38 17 -73 33 -79 34 -11 3 -126 49 -160 64 -11 5 -63 23
-115 40 -52 18 -104 36 -115 40 -11 5 -54 19 -95 30 -41 12 -82 24 -90 27 -8
3 -24 8 -35 10 -27 6 -37 9 -55 16 -12 4 -105 27 -130 32 -3 1 -15 4 -28 9
-12 4 -34 9 -50 11 -15 2 -28 4 -29 6 -4 2 -11 4 -63 14 -25 5 -47 9 -50 10
-3 0 -21 4 -40 8 -19 4 -46 10 -60 13 -53 11 -106 20 -184 30 -21 2 -42 6 -45
8 -3 2 -29 5 -56 7 -28 1 -54 4 -58 7 -5 2 -27 5 -50 7 -23 2 -71 6 -107 9
-36 4 -92 9 -125 12 -75 7 -713 12 -719 6z"/>
</g>
</svg>
