<?xml version="1.0" encoding="UTF-8"?>
<svg width="63px" height="23px" viewBox="0 0 63 23" version="1.1" xmlns="http://www.w3.org/2000/svg" xmlns:xlink="http://www.w3.org/1999/xlink">
    <!-- Generator: Sketch 41.2 (35397) - http://www.bohemiancoding.com/sketch -->
    <title>stut</title>
    <desc>Created with Sketch.</desc>
    <defs></defs>
    <g id="Page-1" stroke="none" stroke-width="1" fill="none" fill-rule="evenodd">
        <g id="Desktop-HD" transform="translate(-210.000000, -399.000000)" fill="#283746">
            <path d="M221.941622,408.651041 C221.567566,408.160092 221.053247,407.733441 220.398649,407.371074 C219.744051,407.008708 219.031017,406.827527 218.259527,406.827527 C217.581551,406.827527 216.96203,406.967796 216.400946,407.248338 C215.839862,407.52888 215.559324,407.996443 215.559324,408.651041 C215.559324,409.305638 215.869085,409.767357 216.488615,410.036209 C217.108145,410.305062 218.014048,410.579755 219.206351,410.860297 C219.837571,411.000568 220.474625,411.187593 221.117534,411.421378 C221.760442,411.655163 222.344896,411.964924 222.870912,412.350669 C223.396928,412.736414 223.823579,413.215666 224.150878,413.788439 C224.478177,414.361212 224.641824,415.056712 224.641824,415.874959 C224.641824,416.903613 224.448955,417.774449 224.063209,418.487493 C223.677464,419.200537 223.163145,419.779146 222.520236,420.223338 C221.877328,420.667529 221.129227,420.988979 220.275912,421.187696 C219.422597,421.386413 218.540072,421.48577 217.628311,421.48577 C216.319115,421.48577 215.045006,421.246144 213.805946,420.766885 C212.566886,420.287626 211.538247,419.603815 210.72,418.715432 L213.490338,416.120432 C213.957908,416.728273 214.565739,417.230903 215.313851,417.628338 C216.061963,418.025772 216.891887,418.224486 217.803649,418.224486 C218.107569,418.224486 218.417329,418.189419 218.732939,418.119284 C219.048549,418.049148 219.340776,417.938102 219.609628,417.786142 C219.878481,417.634182 220.094729,417.429623 220.258378,417.172459 C220.422028,416.915296 220.503851,416.599691 220.503851,416.225635 C220.503851,415.52428 220.182402,415.02165 219.539493,414.71773 C218.896585,414.413809 217.932236,414.109893 216.646419,413.805973 C216.0152,413.665702 215.401523,413.484521 214.805372,413.262426 C214.20922,413.04033 213.677367,412.748103 213.209797,412.385736 C212.742227,412.02337 212.368177,411.573341 212.087635,411.035635 C211.807093,410.49793 211.666824,409.831653 211.666824,409.036784 C211.666824,408.101644 211.859694,407.295098 212.245439,406.617122 C212.631184,405.939145 213.139659,405.383914 213.770878,404.951412 C214.402098,404.51891 215.115131,404.197461 215.91,403.987054 C216.704869,403.776648 217.523104,403.671446 218.36473,403.671446 C219.580411,403.671446 220.766852,403.881849 221.924088,404.302662 C223.081323,404.723475 223.998916,405.366374 224.676892,406.231378 L221.941622,408.651041 Z M227.038108,407.528878 L227.038108,404.162392 L229.983784,404.162392 L229.983784,399.288 L234.121757,399.288 L234.121757,404.162392 L238.329865,404.162392 L238.329865,407.528878 L234.121757,407.528878 L234.121757,415.348946 C234.121757,416.097058 234.256181,416.716579 234.525034,417.207527 C234.793886,417.698475 235.395874,417.943946 236.331014,417.943946 C236.611555,417.943946 236.915471,417.914723 237.24277,417.856277 C237.570069,417.797831 237.862296,417.710163 238.119459,417.59327 L238.25973,420.889622 C237.885674,421.029893 237.441489,421.140939 236.927162,421.222763 C236.412835,421.304588 235.921894,421.3455 235.454324,421.3455 C234.332157,421.3455 233.420409,421.187698 232.719054,420.872088 C232.017699,420.556478 231.462468,420.123982 231.053345,419.574588 C230.644221,419.025193 230.363683,418.393983 230.211723,417.680939 C230.059763,416.967895 229.983784,416.202261 229.983784,415.384014 L229.983784,407.528878 L227.038108,407.528878 Z M257.909257,420.994824 L253.911554,420.994824 L253.911554,418.294622 L253.841419,418.294622 C253.467363,419.136247 252.818619,419.878504 251.895169,420.521412 C250.971718,421.164321 249.87879,421.48577 248.616351,421.48577 C247.517562,421.48577 246.576592,421.292901 245.793412,420.907155 C245.010233,420.52141 244.367334,420.012936 243.864696,419.381716 C243.362058,418.750497 242.993853,418.025774 242.760068,417.207527 C242.526283,416.38928 242.409392,415.547666 242.409392,414.682662 L242.409392,404.162392 L246.6175,404.162392 L246.6175,413.490365 C246.6175,413.981313 246.652567,414.495632 246.722703,415.033338 C246.792838,415.571043 246.944796,416.05614 247.178581,416.488642 C247.412366,416.921144 247.733816,417.277661 248.142939,417.558203 C248.552063,417.838745 249.095605,417.979013 249.773581,417.979013 C250.428179,417.979013 251.006788,417.844589 251.509426,417.575736 C252.012063,417.306884 252.421181,416.962056 252.736791,416.541243 C253.0524,416.12043 253.292026,415.635334 253.455676,415.085939 C253.619325,414.536545 253.701149,413.981314 253.701149,413.42023 L253.701149,404.162392 L257.909257,404.162392 L257.909257,420.994824 Z M261.708243,407.528878 L261.708243,404.162392 L264.653919,404.162392 L264.653919,399.288 L268.791892,399.288 L268.791892,404.162392 L273,404.162392 L273,407.528878 L268.791892,407.528878 L268.791892,415.348946 C268.791892,416.097058 268.926316,416.716579 269.195169,417.207527 C269.464022,417.698475 270.066009,417.943946 271.001149,417.943946 C271.281691,417.943946 271.585606,417.914723 271.912905,417.856277 C272.240204,417.797831 272.532431,417.710163 272.789595,417.59327 L272.929865,420.889622 C272.555809,421.029893 272.111624,421.140939 271.597297,421.222763 C271.08297,421.304588 270.592029,421.3455 270.124459,421.3455 C269.002292,421.3455 268.090544,421.187698 267.389189,420.872088 C266.687834,420.556478 266.132603,420.123982 265.72348,419.574588 C265.314356,419.025193 265.033818,418.393983 264.881858,417.680939 C264.729898,416.967895 264.653919,416.202261 264.653919,415.384014 L264.653919,407.528878 L261.708243,407.528878 Z" id="stut"></path>
        </g>
    </g>
</svg>